<svg xmlns="http://www.w3.org/2000/svg" xmlns:xlink="http://www.w3.org/1999/xlink"><symbol id="icon_fb" viewBox="0 0 40 40"><path d="M26.482 19.963h-4.223V35h-6.296V19.963H13v-5.307h2.963v-3.39C15.963 8.832 17.148 5 22.259 5h4.667v5.16h-3.333c-.519 0-1.334.294-1.334 1.474v3.096H27l-.518 5.233Z" fill="currentColor"/></symbol><symbol id="icon_in" viewBox="0 0 40 40"><path d="M33 22.938V33h-5.822v-9.401c0-2.35-.8-3.966-2.911-3.966-1.601 0-2.547 1.102-2.984 2.13-.146.367-.218.881-.218 1.395V33h-5.822s.072-15.938 0-17.554h5.822v2.498s0 .073-.073.073h.073v-.073c.8-1.176 2.11-2.938 5.24-2.938 3.784.073 6.695 2.57 6.695 7.932ZM9.275 7C7.31 7 6 8.322 6 10.011c0 1.69 1.237 3.012 3.202 3.012h.073c2.038 0 3.275-1.322 3.275-3.012C12.477 8.322 11.24 7 9.275 7ZM6.364 33h5.75V15.446h-5.75V33Z" fill="currentColor"/></symbol><symbol id="icon_mail" viewBox="0 0 40 40"><path d="m7 16.333 12.1 5.85a2.066 2.066 0 0 0 1.8 0l12.1-5.85v12.572A2.088 2.088 0 0 1 30.92 31H9.08A2.088 2.088 0 0 1 7 28.905V16.333Z" fill="currentColor"/><path d="M7 11.095C7 9.938 7.931 9 9.08 9h21.84c1.149 0 2.08.938 2.08 2.095v.777c0 .806-.459 1.54-1.18 1.889l-10.92 5.28a2.067 2.067 0 0 1-1.8 0l-10.92-5.28A2.097 2.097 0 0 1 7 11.872v-.777Z" fill="currentColor"/></symbol><symbol id="icon_tg" viewBox="0 0 40 40"><path d="M34 9.525c-.079.7-.236 1.479-.393 2.18l-4.01 18.681c-.08.39-.158.7-.315 1.012-.315.545-.787.7-1.416.545a2.449 2.449 0 0 1-1.022-.467c-2.045-1.48-4.01-2.958-6.055-4.437-.236-.156-.393-.156-.63.078-1.022.934-1.965 1.946-2.988 2.88-.393.389-.786.622-1.336.545-.394 0-.63-.156-.708-.545-.63-1.946-1.258-3.814-1.888-5.76a18.63 18.63 0 0 1-.629-1.946c-.078-.234-.157-.39-.471-.467-1.966-.623-3.932-1.246-5.898-1.79-.236-.078-.55-.156-.787-.312-.55-.311-.629-.779-.078-1.245.314-.312.707-.468 1.18-.623l8.02-3.036c5.82-2.18 11.56-4.437 17.38-6.616.078 0 .078 0 .157-.078 1.022-.39 1.887.155 1.887 1.4ZM15.834 28.75c.08-.078.08-.155.08-.155.156-1.401.235-2.803.392-4.204 0-.311.158-.622.394-.856l11.323-10.041c.236-.234.472-.39.708-.623.079-.078.236-.156.157-.311-.078-.156-.235-.156-.393-.156-.314 0-.55.156-.786.311-4.64 2.88-9.28 5.76-13.92 8.718-.235.156-.314.312-.235.623.55 1.713 1.101 3.425 1.73 5.138.157.467.393 1.011.55 1.556Z" fill="currentColor"/></symbol><symbol id="logo_brandcube" viewBox="0 0 137 31"><path d="M103.208 16.336c0 1.453-.591 2.205-1.817 2.205s-1.817-.748-1.817-2.205V7.341h-5.476v6.856C93.601 9.924 90.18 7 85.357 7c-5.201 0-8.793 3.43-8.793 8.29 0 4.86 3.587 8.29 8.793 8.29 4.823 0 8.244-2.924 8.741-7.197v.246c0 4.363 2.774 6.951 7.293 6.951 4.52 0 7.317-2.588 7.317-6.95V7.34h-5.5v8.996Zm-14.43-.194v1.13l-3.412 1.984-3.412-1.983v-3.965l3.413-1.983 3.412 1.983v1.13h5.32v1.704h-5.32ZM121.733 14.836c1.249-.729 1.978-1.997 1.978-3.587 0-2.635-2.021-4.249-5.296-4.249h-8.698v15.9h9.086c3.18 0 5.362-1.752 5.362-4.34 0-1.703-.956-3.09-2.432-3.724Zm-6.725-4.136h1.931c.885 0 1.386.43 1.386 1.226 0 .795-.501 1.225-1.386 1.225h-1.931v-2.45Zm2.224 8.451h-2.224V16.63h2.224c.909 0 1.434.455 1.434 1.273 0 .819-.521 1.25-1.434 1.25ZM124.397 7h11.449v4.065h-6.11v1.84h5.523v3.952h-5.523v1.907h6.337v4.135h-11.676V7ZM12.016 14.836c1.25-.729 1.978-1.997 1.978-3.587C13.994 8.614 11.974 7 8.7 7H0v15.9h9.087c3.18 0 5.362-1.752 5.362-4.34 0-1.703-.956-3.09-2.433-3.724ZM5.291 10.7h1.931c.885 0 1.387.43 1.387 1.226 0 .795-.502 1.226-1.387 1.226h-1.93V10.7Zm2.225 8.451H5.29V16.63h2.225c.908 0 1.433.455 1.433 1.273 0 .819-.52 1.25-1.433 1.25ZM55.017 11.84l.047 2.021h-.09L49.887 7h-4.454v14.375L40.071 7h-5.726L28.83 21.844l-2.13-4.259c1.5-.998 2.338-2.635 2.338-4.746C29.04 9.23 26.564 7 22.543 7H14.68v15.9h5.452v-4.226h1.297l1.883 4.225H34.16l.705-1.978h4.657l.705 1.978h10.587v-4.84l-.047-2.092h.066l5.111 6.927h4.454V7.004h-5.386v4.841l.005-.004Zm-33.36 2.793h-1.614v-3.407h1.614c1.202 0 1.883.591 1.883 1.703s-.681 1.704-1.883 1.704Zm14.117 2.659 1.387-4.363h.09l1.41 4.363h-2.887Z" fill="currentColor"/><path d="M68.561 7h-7.156v15.9h7.156c5.272 0 8.699-3.133 8.699-7.95S73.829 7 68.56 7Zm-.16 11.063h-1.567v-6.222H68.4c2.045 0 3.318 1.159 3.318 3.113 0 1.955-1.273 3.114-3.318 3.114v-.005Z" fill="currentColor"/></symbol><symbol id="logo_qualitica" viewBox="0 0 136 30"><path fill-rule="evenodd" clip-rule="evenodd" d="M94.125 19.552c-.129-.213-.335-.293-.593-.293a.73.73 0 0 0-.516.187c-.154.133-.36.266-.567.426-.207.16-.49.293-.8.427-.309.133-.722.186-1.237.186-.516 0-.955-.107-1.367-.293a3.016 3.016 0 0 1-1.032-.88c-.283-.4-.49-.88-.644-1.44-.155-.559-.232-1.225-.232-1.945 0-.693.077-1.306.206-1.866.13-.56.36-1.04.645-1.439.284-.4.62-.666 1.031-.88.413-.213.903-.32 1.47-.32.438 0 1.032.08 1.702.267.103 1.066.18 1.706.207 1.919.077.32.258.507.593.507h1.13l.365-4.212c-1.702-.666-3.095-.986-4.178-.986-1.031 0-1.96.187-2.758.533-.8.347-1.47.826-2.013 1.466a6.69 6.69 0 0 0-1.237 2.239c-.284.853-.412 1.76-.412 2.772 0 1.12.154 2.132.464 3.012.31.88.748 1.599 1.289 2.212a5.372 5.372 0 0 0 1.883 1.386c.722.32 1.47.453 2.295.453a8.46 8.46 0 0 0 1.418-.107c.464-.08.929-.186 1.367-.346.438-.187.877-.4 1.29-.693.412-.294.773-.667 1.134-1.093l-.903-1.199ZM71.883 23.017a5.45 5.45 0 0 0 1.858-.32 5.02 5.02 0 0 0 1.598-.906l-.954-1.6c-.078-.106-.13-.16-.18-.213-.053-.053-.156-.053-.259-.053-.077 0-.129 0-.206.053-.078.053-.18.107-.284.16-.103.053-.206.106-.335.16-.129.053-.284.053-.49.053-.335 0-.619-.107-.825-.346-.206-.24-.31-.56-.31-.987l.01-7.597 3.472.006V9.394h-3.476l-.006-4.448-1.653.153c-.18.017-.421.045-.55.151-.122.1-.181.33-.216.51-.217 1.156-.44 2.472-.648 3.63l-2.071.193v.957l1.583.532c.152.05.318.183.35.352l.007 7.808c0 1.172.31 2.105.928 2.771.62.667 1.523 1.014 2.657 1.014ZM64.8 5.133c0-.293-.078-.56-.181-.826a1.97 1.97 0 0 0-.439-.667 1.839 1.839 0 0 0-.644-.426c-.258-.107-.516-.187-.8-.187-.283 0-.541.08-.8.187-.257.107-.438.24-.618.426-.18.187-.335.4-.438.667a2.23 2.23 0 0 0-.155.826c0 .293.051.56.155.8.103.239.258.48.438.666.18.186.36.346.619.453.258.106.516.16.8.16.283 0 .54-.054.799-.16.258-.107.464-.267.644-.453.18-.187.336-.427.439-.667.103-.24.18-.506.18-.8Zm-.49 7.61V9.13l-5.133.48v.957l1.58.532a.706.706 0 0 1 .247.16c.074.067.11.165.11.3 0 2.87.015 5.736.023 8.605-.01.006-.01.013.001.018l.001.636c0 .132-.035.231-.103.294a.912.912 0 0 1-.278.165l-1.58.592v.934h7.091v-.007h.001v-.851h-.001v-.076l-1.562-.592a.845.845 0 0 1-.256-.155c-.081-.07-.12-.172-.12-.305l-.01-8.076h-.011ZM55.47 3l-5.167.484v.944l1.612.541a.706.706 0 0 1 .248.161c.073.067.11.165.11.3l.026 15.395c0 .132-.036.231-.103.294a.922.922 0 0 1-.278.165l-1.58.593v.927h7.092v-.852h-.001v-.076l-1.562-.592a.851.851 0 0 1-.256-.154c-.082-.07-.121-.173-.121-.305L55.47 3ZM47.761 18.16V14.14c0-.773-.103-1.492-.31-2.132-.206-.64-.567-1.2-.98-1.68a4.602 4.602 0 0 0-1.52-1.092c-.62-.266-1.316-.4-2.09-.4-2.14 0-3.97.747-5.492 2.186l.593 1.04c.103.16.206.32.36.426.155.106.362.16.568.16.258 0 .49-.054.696-.187.207-.133.439-.24.697-.4a5.81 5.81 0 0 1 .902-.426c.335-.133.774-.186 1.29-.186.722 0 1.263.213 1.624.666.361.453.568 1.12.568 2.052v.8c-1.496 0-2.785.133-3.791.4-1.006.266-1.805.613-2.424 1.012-.62.4-1.057.853-1.315 1.364a3.48 3.48 0 0 0-.387 1.56c0 .621.103 1.154.283 1.607.18.453.465.853.8 1.173.335.32.748.533 1.212.693.464.16.98.24 1.547.24.465 0 .903-.053 1.29-.134a4.71 4.71 0 0 0 1.083-.346c.335-.16.696-.346 1.006-.586.24-.173.468-.359.7-.568v1.414l4.635-.444v-.867l-1.175-.497a1.172 1.172 0 0 1-.258-.151c-.072-.061-.11-.149-.11-.273V18.16h-.002Zm-3.094 1.116a7.784 7.784 0 0 1-.697.649c-.231.186-.464.32-.696.453-.232.133-.516.24-.8.293-.283.053-.567.08-.902.08-.541 0-.954-.133-1.29-.373-.334-.24-.49-.67-.49-1.262 0-.297.078-.59.233-.835.154-.24.412-.457.799-.644.387-.186.903-.35 1.522-.484.618-.133 1.392-.186 2.32-.186v2.31ZM33.985 19.74l.004-.004V9.13l-5.167.484v.943l1.611.542a.709.709 0 0 1 .248.161c.073.067.11.165.11.3v7.459c-.439.453-.877.799-1.367 1.039-.49.24-1.006.373-1.547.373-.748 0-1.315-.213-1.676-.666-.361-.454-.568-1.12-.568-1.946V9.13l-.014.002-5.118.48v.937l1.6.537a.71.71 0 0 1 .247.16c.073.066.11.164.11.298v2.602h.003v3.673c0 .773.104 1.466.284 2.105.206.64.464 1.173.851 1.626.387.453.851.853 1.393 1.093.567.24 1.212.373 1.934.373.439 0 .826-.053 1.212-.133.387-.107.748-.24 1.083-.4.335-.16.645-.346.929-.586.214-.182.429-.379.644-.591v1.5l5.132-.481v-.957l-1.58-.531a.705.705 0 0 1-.248-.162c-.073-.067-.11-.164-.11-.3v-.634ZM82.068 5.133c0-.293-.078-.56-.18-.826a1.962 1.962 0 0 0-1.084-1.093c-.258-.107-.516-.187-.8-.187-.283 0-.54.08-.798.187a1.74 1.74 0 0 0-.62.426c-.18.187-.335.4-.438.667a2.242 2.242 0 0 0-.154.826c0 .293.051.56.154.8.103.239.258.48.439.666.18.186.36.346.619.453.257.106.515.16.798.16.284 0 .542-.054.8-.16.258-.107.464-.267.645-.453.18-.187.335-.427.438-.667.103-.24.181-.506.181-.8Zm-.49 7.61V9.13l-5.132.48v.957l1.58.532a.707.707 0 0 1 .247.16c.073.067.11.165.11.3 0 2.87.015 5.736.023 8.605-.01.006-.01.013 0 .018l.002.636c0 .132-.036.231-.104.294a.909.909 0 0 1-.277.165l-1.58.592v.03h-.001v.904h7.091v-.007h.002v-.851h-.002v-.076l-1.561-.592a.847.847 0 0 1-.256-.155c-.082-.07-.121-.172-.121-.305l-.01-8.076h-.011ZM106.684 18.16V14.14c0-.773-.104-1.492-.31-2.132-.207-.64-.567-1.2-.98-1.68a4.594 4.594 0 0 0-1.521-1.092c-.619-.266-1.315-.4-2.089-.4-2.141 0-3.972.747-5.493 2.186l.593 1.04c.103.16.206.32.36.426.155.106.362.16.568.16.258 0 .49-.054.697-.187.206-.133.438-.24.696-.4.258-.16.568-.293.902-.426.336-.133.774-.186 1.29-.186.722 0 1.264.213 1.625.666.361.453.567 1.12.567 2.052v.8c-1.496 0-2.785.133-3.791.4-1.006.266-1.805.613-2.424 1.012-.62.4-1.057.853-1.315 1.364a3.48 3.48 0 0 0-.388 1.56c0 .621.104 1.154.285 1.607.18.453.463.853.799 1.173.335.32.748.533 1.212.693.465.16.98.24 1.547.24.465 0 .903-.053 1.29-.134.387-.08.748-.186 1.083-.346.335-.16.696-.346 1.006-.586.241-.173.468-.359.701-.568v1.414l4.634-.444v-.867l-1.174-.497a1.173 1.173 0 0 1-.259-.151c-.072-.061-.11-.149-.11-.273V18.16h-.001Zm-3.095 1.116a7.761 7.761 0 0 1-.697.649c-.231.186-.464.32-.695.453-.233.133-.517.24-.8.293-.284.053-.568.08-.903.08-.541 0-.954-.133-1.29-.373-.335-.24-.49-.67-.49-1.262 0-.297.078-.59.233-.835.155-.24.412-.457.8-.644.386-.186.902-.35 1.521-.484.619-.133 1.393-.186 2.321-.186v2.31ZM18.903 13.155c0-1.412-.232-2.718-.697-3.918-.464-1.2-1.083-2.239-1.908-3.118-.825-.88-1.831-1.546-2.991-2.053-1.16-.506-2.424-.746-3.843-.746-1.418 0-2.708.267-3.868.746A8.544 8.544 0 0 0 2.605 6.12c-.826.88-1.47 1.919-1.935 3.118-.464 1.2-.67 2.506-.67 3.918 0 1.413.206 2.746.67 3.945.465 1.2 1.11 2.239 1.935 3.118a8.543 8.543 0 0 0 2.991 2.053c1.16.48 2.45.746 3.868.746.49 0 .98-.053 1.445-.107a7.51 7.51 0 0 0 1.34-.266l2.734 3.118c.284.32.568.533.903.64.335.106.722.186 1.134.186h2.837l-4.72-5.33a7.83 7.83 0 0 0 1.574-1.52c.464-.586.877-1.199 1.186-1.892.31-.693.568-1.413.748-2.212.18-.8.258-1.626.258-2.479Zm-3.559 0a9.725 9.725 0 0 1-.412 2.852c-.258.853-.645 1.546-1.16 2.133a5.297 5.297 0 0 1-1.858 1.359c-.722.32-1.547.453-2.45.453-.902 0-1.727-.134-2.45-.453a5.4 5.4 0 0 1-1.882-1.36c-.516-.586-.903-1.279-1.186-2.132-.284-.853-.413-1.786-.413-2.852 0-1.066.13-1.972.413-2.825.283-.853.67-1.546 1.186-2.132a5.394 5.394 0 0 1 1.883-1.36c.722-.32 1.547-.453 2.45-.453.902 0 1.727.134 2.45.454.722.32 1.34.773 1.856 1.359s.903 1.279 1.16 2.132a9.54 9.54 0 0 1 .413 2.825Z" fill="currentColor"/><path fill-rule="evenodd" clip-rule="evenodd" d="M5.435 11.606a.568.568 0 0 1-.196.073c-.273.046-.48-.15-.46-.436.117-1.8 1.612-3.498 3.33-3.785.274-.046.48.15.462.436-.019.286-.256.555-.53.6C6.87 8.692 5.85 9.85 5.77 11.079a.69.69 0 0 1-.334.528Z" fill="currentColor"/></symbol><symbol id="logo_wikiworks" viewBox="0 0 136 31"><path d="M22.593 9.631h-2.502L18.306 23.17l3.036 2.026 3.036-2.026-1.785-13.538ZM19.44 6l.65 2.445h2.503L23.244 6H19.44ZM0 9.785h3.928l1.782 6.997 1.71-6.997h2.755l1.56 7.028 1.764-7.028h3.948l-3.411 13.388h-3.57l-1.744-7.108-1.73 7.108H3.414L0 9.785ZM27.39 9.785h3.805v5.188l3.948-5.188h4.482l-4.941 6.493 5.29 6.895h-4.469l-4.297-5.597v5.597h-3.817V9.785ZM41.993 9.785h3.801v13.388h-3.8V9.785ZM47.814 9.785h3.931l1.782 6.997 1.707-6.997h2.747l1.56 7.028 1.765-7.028h3.948l-3.418 13.388h-3.553l-1.744-7.108-1.744 7.108h-3.563L47.814 9.785ZM69.129 22.596a6.407 6.407 0 0 1-2.496-2.449 7.684 7.684 0 0 1-.91-3.633c0-1.272.314-2.523.91-3.633a6.415 6.415 0 0 1 2.496-2.473 7.165 7.165 0 0 1 3.536-.882 7.066 7.066 0 0 1 3.519.882 6.46 6.46 0 0 1 2.479 2.473c.596 1.11.91 2.36.91 3.633a7.684 7.684 0 0 1-.91 3.633 6.454 6.454 0 0 1-2.48 2.449 7.065 7.065 0 0 1-3.518.881 7.165 7.165 0 0 1-3.536-.881Zm5.069-3.23c.46-.26.84-.651 1.093-1.129a3.551 3.551 0 0 0 .406-1.75 3.269 3.269 0 0 0-.196-1.272 3.165 3.165 0 0 0-.67-1.085 2.966 2.966 0 0 0-.997-.669 2.869 2.869 0 0 0-1.17-.21 2.83 2.83 0 0 0-1.203.209c-.383.156-.73.394-1.019.7-.289.304-.513.67-.658 1.07-.146.401-.209.83-.185 1.258A3.55 3.55 0 0 0 70 18.237c.256.48.64.871 1.104 1.13.48.266 1.016.402 1.56.395a3.03 3.03 0 0 0 1.533-.413v.018ZM81.591 9.785h5.972c1.54 0 2.76.402 3.653 1.214.892.812 1.342 1.984 1.342 3.516.024.89-.182 1.77-.597 2.546a3.96 3.96 0 0 1-1.701 1.61l2.15 4.502H88.51l-1.872-3.928h-1.252v3.928h-3.794V9.785Zm5.217 6.318c.48.032.957-.09 1.369-.35.313-.328.489-.772.489-1.235 0-.463-.176-.907-.49-1.235a2.272 2.272 0 0 0-1.368-.35h-1.416v3.18l1.416-.01ZM94.795 9.785h3.801v5.188l3.948-5.188h4.482l-4.941 6.493 5.29 6.895h-4.482l-4.297-5.597v5.597h-3.8V9.785ZM110.19 23.201a7.25 7.25 0 0 1-2.013-.7v-3.498c.668.38 1.381.67 2.12.86.681.184 1.38.28 2.083.288.944 0 1.416-.262 1.416-.784a.84.84 0 0 0-.211-.567 2.179 2.179 0 0 0-.635-.458c-.281-.147-.727-.35-1.341-.644a7.17 7.17 0 0 1-2.58-1.749 3.587 3.587 0 0 1-.798-2.375c-.011-.758.211-1.5.634-2.117a4.188 4.188 0 0 1 1.771-1.448 6.336 6.336 0 0 1 2.626-.518c.722-.007 1.442.06 2.151.203.627.14 1.236.362 1.811.658v3.39a6.497 6.497 0 0 0-3.27-.917 2.636 2.636 0 0 0-1.175.22.679.679 0 0 0-.314.25.721.721 0 0 0-.125.39c.001.14.038.277.107.396.069.12.168.217.285.283.481.28.981.521 1.497.721l.406.171a9.318 9.318 0 0 1 2.012 1.102c.435.324.781.759 1.007 1.263a4.57 4.57 0 0 1 .312 1.809 3.69 3.69 0 0 1-.313 1.653c-.23.517-.576.969-1.009 1.317-.866.709-2.193 1.062-3.982 1.06a12.242 12.242 0 0 1-2.472-.259Z" fill="currentColor"/></symbol><symbol id="logo_zoovod" viewBox="0 0 136 30"><path fill-rule="evenodd" clip-rule="evenodd" d="M39.79 7.994C39.79 5.185 41.857 3 44.41 3h.617c2.552 0 4.62 2.185 4.62 4.994v14.513c0 2.81-2.068 4.838-4.62 4.838h-.616c-2.553 0-4.622-2.029-4.622-4.838V7.994Zm3.696-.156c0-.69.552-1.249 1.233-1.249.68 0 1.232.56 1.232 1.249v14.668a1.24 1.24 0 0 1-1.232 1.25 1.213 1.213 0 0 1-.871-.366 1.249 1.249 0 0 1-.362-.884V7.838Zm7.395.156C50.88 5.185 52.95 3 55.5 3h.617c2.552 0 4.622 2.185 4.622 4.994v14.513c0 2.81-2.07 4.838-4.622 4.838h-.616c-2.552 0-4.621-2.029-4.621-4.838V7.994Zm3.697-.156c0-.69.551-1.249 1.232-1.249.68 0 1.232.56 1.232 1.249v14.668a1.24 1.24 0 0 1-1.232 1.25 1.213 1.213 0 0 1-.87-.366 1.25 1.25 0 0 1-.362-.884V7.838ZM77.223 3c-2.552 0-4.621 2.185-4.621 4.994v14.513c0 2.81 2.069 4.838 4.621 4.838h.616c2.552 0 4.622-2.029 4.622-4.838V7.994C82.46 5.185 80.39 3 77.839 3h-.616Zm.308 3.59a1.214 1.214 0 0 0-.87.364 1.25 1.25 0 0 0-.362.884v14.668c0 .69.551 1.25 1.232 1.25a1.214 1.214 0 0 0 .871-.366 1.249 1.249 0 0 0 .361-.884V7.84a1.266 1.266 0 0 0-.36-.884 1.23 1.23 0 0 0-.872-.366Zm6.47-3.278h5.392c2.042 0 4.005 1.99 4.005 4.057v15.762c0 2.07-1.771 3.902-4.005 3.902h-5.392V3.313Zm3.544 3.277h1.078c.595 0 1.078.49 1.078 1.093v14.67c0 .33-.13.648-.362.882a1.221 1.221 0 0 1-.87.365h-.924V6.59Z" fill="currentColor"/><path d="M29.622 3.312h8.78v3.433l-5.236 16.699h5.391v3.589h-9.09v-3.59l5.238-16.698h-5.083V3.313Zm37.126 16.386-1.54-16.386H61.51l3.08 23.72h4.314l3.081-23.72h-3.697l-1.54 16.386Zm-51.764-2.243a.767.767 0 0 1-.22.538.744.744 0 0 1-1.06 0 .767.767 0 0 1 0-1.076.744.744 0 0 1 1.06 0c.14.142.22.336.22.538Zm2.996 0a.767.767 0 0 1-.219.538.744.744 0 0 1-1.06 0 .767.767 0 0 1 0-1.076.743.743 0 0 1 1.06 0c.14.142.22.336.22.538Z" fill="currentColor"/><path fill-rule="evenodd" clip-rule="evenodd" d="M4.495 3a4.46 4.46 0 0 0-3.178 1.337A4.6 4.6 0 0 0 0 7.565V22.78a4.6 4.6 0 0 0 1.317 3.228 4.46 4.46 0 0 0 3.178 1.337H19.48a4.46 4.46 0 0 0 3.178-1.337 4.6 4.6 0 0 0 1.317-3.228V7.565a4.6 4.6 0 0 0-1.317-3.228A4.46 4.46 0 0 0 19.48 3H4.495Zm16.482 4.565c0 .403-.158.79-.439 1.076a1.487 1.487 0 0 1-1.06.445c-.397 0-.778-.16-1.059-.445a1.534 1.534 0 0 1-.439-1.076c0-.404.158-.79.44-1.076a1.487 1.487 0 0 1 1.059-.446c.397 0 .778.16 1.06.446.28.285.438.672.438 1.076ZM5.244 10.988c-.413 0-.749.341-.749.761v8.749a2.3 2.3 0 0 0 .658 1.614 2.23 2.23 0 0 0 1.59.668h12.736c.198 0 .39-.08.53-.223a.766.766 0 0 0 0-1.075.744.744 0 0 0-.53-.223v-6.087l-3.107-3.154a.372.372 0 0 0-.64.269v2.885l-3.105-3.154a.372.372 0 0 0-.64.269v2.885H5.993V11.75c0-.42-.335-.76-.749-.76Z" fill="currentColor"/></symbol><symbol id="title" viewBox="0 0 709 268"><path d="M.46 2.18V.4h31.684v1.78h-8.722v121.04h8.722V125H.46v-1.78h8.188V2.18H.46Zm111.621 34.888L113.149 36c.475.237 1.068.95 1.78 2.136.831 1.187 1.306 2.255 1.424 3.204.238.95.356 1.84.356 2.67 0 3.204-.712 6.467-2.136 9.79L80.397 125h-1.78L45.51 36h12.46l27.234 73.692 27.59-55.892c1.424-2.492 2.136-5.459 2.136-8.9 0-3.441-.949-6.052-2.848-7.832ZM200.048 125c-8.069 0-13.587-1.543-16.554-4.628-2.729-2.611-4.094-4.865-4.094-6.764v-3.738c-5.815 10.561-15.13 15.842-27.946 15.842-14.952 0-23.437-6.764-25.454-20.292a25.98 25.98 0 0 1-.356-4.272c0-1.543.237-3.204.712-4.984.475-1.78 1.839-3.738 4.094-5.874 4.509-4.272 14.418-6.883 29.726-7.832 3.797-.356 7.298-.534 10.502-.534 3.204 0 6.111.119 8.722.356V52.732c-.237-.119-.237-.653 0-1.602.237-1.068 0-2.373-.712-3.916a20.596 20.596 0 0 0-2.492-4.806c-1.068-1.543-2.967-2.848-5.696-3.916-2.729-1.187-6.289-1.78-10.68-1.78s-9.553.83-15.486 2.492c-5.815 1.543-10.087 3.085-12.816 4.628l-.712-1.246c10.561-4.865 21.301-7.298 32.218-7.298 12.223 0 20.292 2.195 24.208 6.586 3.085 3.441 4.628 7.06 4.628 10.858v59.63c0 3.441.653 6.111 1.958 8.01 1.424 1.78 2.848 2.729 4.272 2.848l1.958.356h5.518V125h-5.518Zm-45.746-.712c6.289 0 11.926-2.136 16.91-6.408 5.103-4.391 7.832-8.603 8.188-12.638V83.704a132.518 132.518 0 0 0-9.79-.356c-3.204 0-6.408.178-9.612.534-9.019 1.068-14.893 3.085-17.622 6.052-2.729 2.967-4.094 7.06-4.094 12.282 0 .949.059 2.017.178 3.204 1.068 12.579 6.349 18.868 15.842 18.868ZM289.23 125c-4.865 0-8.603-1.068-11.214-3.204-2.492-2.136-3.797-4.272-3.916-6.408l-.178-3.026V56.47c0-9.375-2.432-15.367-7.298-17.978-2.492-1.187-5.577-1.78-9.256-1.78-7.594 0-14.418 3.026-20.47 9.078-6.052 5.933-9.078 11.273-9.078 16.02V125h-12.46V36h12.46v20.292c2.018-5.103 5.756-9.85 11.214-14.24 5.459-4.51 11.452-6.764 17.978-6.764 6.527 0 11.808.653 15.842 1.958 4.154 1.187 7.18 2.907 9.078 5.162 2.967 3.679 4.45 8.425 4.45 14.24v55.714c0 3.441.653 6.111 1.958 8.01 1.424 1.78 2.848 2.729 4.272 2.848l1.958.356h5.518V125H289.23ZM.46 143.824c13.765-.949 25.929-1.424 36.49-1.424 29.31 0 43.966 9.79 43.966 29.37 0 7.357-2.136 13.706-6.408 19.046-4.272 5.221-11.095 8.781-20.47 10.68 9.019 1.068 16.139 3.797 21.36 8.188s7.832 12.045 7.832 22.962C83.23 255.549 68.575 267 39.264 267H.46V143.824ZM15.234 265.22h24.03c10.561 0 18.037-2.729 22.428-8.188 4.51-5.577 6.764-14.062 6.764-25.454 0-11.392-2.255-18.987-6.764-22.784-4.51-3.797-11.214-5.815-20.114-6.052H15.234v62.478ZM36.95 144.18c-6.883 0-14.121.415-21.716 1.246v55.536h26.344c16.732-.712 25.098-10.324 25.098-28.836 0-9.019-2.492-15.901-7.476-20.648-4.984-4.865-12.4-7.298-22.25-7.298Zm101.872 123.532c-12.46 0-22.606-3.56-30.438-10.68-7.832-7.12-11.748-18.097-11.748-32.93 0-14.833 4.034-26.344 12.104-34.532 8.188-8.188 18.512-12.282 30.972-12.282 12.578 0 22.784 3.56 30.616 10.68 7.832 7.12 11.748 18.097 11.748 32.93 0 14.833-4.094 26.344-12.282 34.532-8.07 8.188-18.394 12.282-30.972 12.282Zm1.246-89c-9.019 0-16.495 4.035-22.428 12.104-5.934 7.951-8.9 19.105-8.9 33.464 0 14.24 2.729 24.801 8.188 31.684 5.458 6.883 12.697 10.324 21.716 10.324 9.018 0 16.494-3.975 22.428-11.926 5.933-8.069 8.9-19.224 8.9-33.464 0-14.359-2.73-24.979-8.188-31.862-5.459-6.883-12.698-10.324-21.716-10.324Zm86.693 6.942v-3.738c-5.34 2.136-10.206 6.467-14.596 12.994-4.391 6.408-6.705 12.46-6.942 18.156V267h-12.46v-89h12.46v28.302c1.898-6.883 5.518-13.35 10.858-19.402 5.34-6.171 11.392-9.375 18.156-9.612h.712c2.373 0 4.331.831 5.874 2.492 1.661 1.543 2.492 3.501 2.492 5.874 0 2.373-.831 4.331-2.492 5.874-1.543 1.543-3.501 2.314-5.874 2.314-2.374 0-4.332-.771-5.874-2.314-1.543-1.543-2.314-3.501-2.314-5.874Zm137.304 12.816c0-7.239-.949-12.341-2.848-15.308-1.898-2.967-5.518-4.45-10.858-4.45-7.12 0-13.468 2.967-19.046 8.9-5.458 5.933-8.188 11.273-8.188 16.02V267h-12.46v-68.53c0-7.239-.949-12.341-2.848-15.308-1.898-2.967-5.933-4.45-12.104-4.45-6.17 0-12.044 2.848-17.622 8.544-5.458 5.696-8.425 10.977-8.9 15.842V267h-12.46v-89h12.46v20.114c1.899-5.103 5.4-9.849 10.502-14.24 5.103-4.391 10.799-6.586 17.088-6.586 6.29 0 11.274.593 14.952 1.78 3.798 1.068 6.468 2.789 8.01 5.162 1.543 2.373 2.492 4.45 2.848 6.23.356 1.78.534 4.272.534 7.476 1.899-5.103 5.34-9.79 10.324-14.062 4.984-4.391 10.324-6.586 16.02-6.586s10.265.475 13.706 1.424c3.442.949 5.993 2.017 7.654 3.204 1.78 1.187 3.086 2.907 3.916 5.162.95 2.255 1.484 4.094 1.602 5.518.119 1.424.178 3.441.178 6.052v55.714c0 3.441.653 6.111 1.958 8.01 1.424 1.78 2.848 2.729 4.272 2.848l1.958.356h5.518V267h-10.858c-4.865 0-8.603-1.068-11.214-3.204-2.492-2.136-3.797-4.272-3.916-6.408l-.178-3.026V198.47Zm71.829 69.242c-12.46 0-22.606-3.56-30.438-10.68-7.832-7.12-11.748-18.097-11.748-32.93 0-14.833 4.035-26.344 12.104-34.532 8.188-8.188 18.512-12.282 30.972-12.282 12.579 0 22.784 3.56 30.616 10.68 7.832 7.12 11.748 18.097 11.748 32.93 0 14.833-4.094 26.344-12.282 34.532-8.069 8.188-18.393 12.282-30.972 12.282Zm1.246-89c-9.019 0-16.495 4.035-22.428 12.104-5.933 7.951-8.9 19.105-8.9 33.464 0 14.24 2.729 24.801 8.188 31.684 5.459 6.883 12.697 10.324 21.716 10.324 9.019 0 16.495-3.975 22.428-11.926 5.933-8.069 8.9-19.224 8.9-33.464 0-14.359-2.729-24.979-8.188-31.862-5.459-6.883-12.697-10.324-21.716-10.324Zm55.281.712V178h3.738v-17.8h12.46V178h27.234v1.424h-27.234v64.792c0 7.713.831 13.291 2.492 16.732 1.78 3.441 5.4 5.162 10.858 5.162 5.578 0 11.214-1.127 16.91-3.382l.534 1.424c-5.933 2.255-12.756 3.382-20.47 3.382-7.594 0-13.29-1.543-17.088-4.628-3.797-3.204-5.696-9.493-5.696-18.868v-64.614h-3.738Zm93.66 88.288c-12.46 0-22.606-3.56-30.438-10.68-7.832-7.12-11.748-18.097-11.748-32.93 0-14.833 4.035-26.344 12.104-34.532 8.188-8.188 18.512-12.282 30.972-12.282 12.579 0 22.784 3.56 30.616 10.68 7.832 7.12 11.748 18.097 11.748 32.93 0 14.833-4.094 26.344-12.282 34.532-8.069 8.188-18.393 12.282-30.972 12.282Zm1.246-89c-9.018 0-16.494 4.035-22.428 12.104-5.933 7.951-8.9 19.105-8.9 33.464 0 14.24 2.73 24.801 8.188 31.684 5.459 6.883 12.698 10.324 21.716 10.324 9.019 0 16.495-3.975 22.428-11.926 5.934-8.069 8.9-19.224 8.9-33.464 0-14.359-2.729-24.979-8.188-31.862-5.458-6.883-12.697-10.324-21.716-10.324Zm116.465.356L704.86 178c.475.237 1.068.949 1.78 2.136.831 1.187 1.306 2.255 1.424 3.204.238.949.356 1.839.356 2.67 0 3.204-.712 6.467-2.136 9.79L672.108 267h-1.78l-33.108-89h12.46l27.234 73.692 27.59-55.892c1.424-2.492 2.136-5.459 2.136-8.9 0-3.441-.949-6.052-2.848-7.832Z" fill="currentColor"/></symbol></svg>